<svg width="29" height="33" viewBox="0 0 29 33" fill="none" xmlns="http://www.w3.org/2000/svg">
<path d="M19.1953 12.1016C18.7422 12.1016 18.3906 12.4141 18.3906 12.8281V27.1328C18.3906 27.5508 18.7422 27.8633 19.1953 27.8633C19.6523 27.8633 20.0039 27.5508 20.0039 27.1328V12.8633C19.9688 12.4453 19.6172 12.1016 19.1953 12.1016Z" fill="#2C6871"/>
<path d="M9.76172 12.1016C9.30469 12.1016 8.95312 12.4141 8.95312 12.8281V27.1328C8.95312 27.5508 9.30469 27.8633 9.76172 27.8633C10.2187 27.8633 10.5703 27.5508 10.5703 27.1328V12.8633C10.5703 12.4453 10.1836 12.1016 9.76172 12.1016Z" fill="#2C6871"/>
<path d="M3.66018 5.86328H25.2617C26.0703 5.86328 26.6992 6.48828 26.6992 7.21875C26.6992 7.94531 26.0703 8.56641 25.2617 8.56641H3.66018C2.85159 8.56641 2.22268 7.94531 2.22268 7.21875C2.22268 6.48828 2.85159 5.86328 3.66018 5.86328ZM9.33987 3.40625C9.33987 2.98828 9.51565 2.64453 9.7969 2.33203C10.1133 2.05469 10.5 1.91797 10.918 1.91797H18.0039C18.4219 1.91797 18.8086 2.08984 19.125 2.33203C19.4414 2.60938 19.5821 2.98828 19.5821 3.40625V4.33984H9.37893L9.33987 3.40625ZM22.0352 31.1523H6.88675C5.51956 31.1523 4.42972 30.043 4.42972 28.625V10.0898H24.4219V28.6602C24.4571 30.0781 23.4063 31.1523 22.0352 31.1523ZM2.89065 10.0234V28.625C2.89065 29.7344 3.30862 30.7383 4.0469 31.5C4.78128 32.2266 5.83597 32.6758 6.88675 32.6758H22.0039C23.0899 32.6758 24.1055 32.2617 24.8438 31.5C25.5782 30.7734 26 29.7344 26 28.625V10.0234C27.4727 9.64062 28.4532 8.32422 28.2422 6.87109C28.0352 5.41406 26.7383 4.33984 25.2266 4.33984H21.1602V3.40625C21.1602 2.60938 20.8438 1.84766 20.25 1.29297C19.6524 0.703125 18.8477 0.425781 18.0039 0.425781H10.918C10.0782 0.425781 9.26956 0.703125 8.67581 1.29297C8.07815 1.84766 7.76175 2.60938 7.76175 3.40625V4.33984H3.66018C2.15237 4.33984 0.820341 5.41406 0.64456 6.87109C0.433623 8.28906 1.37893 9.64062 2.89065 10.0234Z" fill="#2C6871"/>
<path d="M14.4609 12.1016C14.0078 12.1016 13.6562 12.4141 13.6562 12.8281V27.1328C13.6562 27.5508 14.0078 27.8633 14.4609 27.8633C14.918 27.8633 15.2656 27.5508 15.2656 27.1328V12.8633C15.2656 12.4453 14.918 12.1016 14.4609 12.1016Z" fill="#2C6871"/>
</svg>
