<svg width="33" height="33" viewBox="0 0 33 33" fill="none" xmlns="http://www.w3.org/2000/svg">
<path d="M14.8867 0.253906C6.80859 0.253906 0.226562 6.83594 0.226562 14.9141C0.226562 22.9922 6.80859 29.5742 14.8867 29.5742C15.6055 29.5742 16.3086 29.5039 17 29.4062C18.6172 31.2969 21.0156 32.5039 23.6836 32.5039C28.5195 32.5039 32.4766 28.5469 32.4766 23.7109C32.4766 18.8711 28.5195 14.9141 23.6836 14.9141C18.8438 14.9141 14.8867 18.8711 14.8867 23.7109C14.8867 24.7266 15.0742 25.7031 15.3945 26.6133C15.2227 26.6211 15.0586 26.6406 14.8867 26.6406C8.39453 26.6406 3.16016 21.4102 3.16016 14.9141C3.16016 8.41797 8.39453 3.1875 14.8867 3.1875C17.3828 3.1875 19.6797 3.97266 21.5742 5.29297L19.2852 7.58594H26.6133V0.253906L23.6836 3.1875C21.2344 1.34766 18.1797 0.253906 14.8867 0.253906ZM27.7891 19.7539L29.8398 21.8047L22.9492 28.6953L18.2617 24L20.3086 21.9531L22.9492 24.5898L27.7891 19.7539Z" fill="#2C6871"/>
</svg>
